<svg width="50" height="50" viewBox="0 0 792 792" fill="none" xmlns="http://www.w3.org/2000/svg">
<rect width="50" height="50" fill="#E5E5E5"/>
<rect width="792" height="792" fill="white"/>
<path d="M259.968 297.192C259.584 297.192 259.285 297.064 259.072 296.808C258.901 296.509 258.816 296.168 258.816 295.784C258.859 295.144 258.987 294.76 259.2 294.632C259.413 294.504 259.819 294.44 260.416 294.44C261.653 294.44 262.549 294.227 263.104 293.8C263.701 293.331 264.064 292.797 264.192 292.2C264.32 291.56 264.405 290.664 264.448 289.512L264.576 264.104C264.576 262.824 264.427 261.864 264.128 261.224C263.872 260.541 263.445 260.051 262.848 259.752C262.251 259.453 261.397 259.197 260.288 258.984C259.563 258.856 259.115 258.728 258.944 258.6C258.773 258.472 258.688 258.109 258.688 257.512C258.688 257 258.816 256.659 259.072 256.488C259.371 256.317 259.819 256.232 260.416 256.232C263.061 256.232 265.152 256.424 266.688 256.808C268.224 257.149 269.568 257.789 270.72 258.728C271.915 259.667 273.216 261.096 274.624 263.016L292.16 286.056H292.352L292.224 264.104C292.181 262.952 292.096 262.077 291.968 261.48C291.84 260.84 291.477 260.307 290.88 259.88C290.325 259.411 289.429 259.176 288.192 259.176H287.808C287.381 259.176 287.061 259.112 286.848 258.984C286.677 258.813 286.571 258.429 286.528 257.832C286.528 257.448 286.635 257.128 286.848 256.872C287.061 256.573 287.339 256.424 287.68 256.424C290.411 256.552 292.459 256.616 293.824 256.616C294.635 256.616 296.192 256.573 298.496 256.488L299.84 256.424C300.224 256.424 300.501 256.573 300.672 256.872C300.885 257.128 300.992 257.448 300.992 257.832C300.949 258.472 300.821 258.856 300.608 258.984C300.395 259.112 299.989 259.176 299.392 259.176C298.155 259.176 297.237 259.411 296.64 259.88C296.085 260.307 295.744 260.84 295.616 261.48C295.488 262.077 295.403 262.952 295.36 264.104L295.232 296.36C295.189 296.915 294.656 297.192 293.632 297.192C292.821 297.192 292.203 296.915 291.776 296.36L267.648 264.104H267.456L267.584 289.512C267.627 290.664 267.712 291.56 267.84 292.2C267.968 292.797 268.309 293.331 268.864 293.8C269.461 294.227 270.379 294.44 271.616 294.44H272C272.427 294.44 272.725 294.525 272.896 294.696C273.109 294.824 273.237 295.187 273.28 295.784C273.28 296.168 273.173 296.509 272.96 296.808C272.789 297.064 272.512 297.192 272.128 297.192C269.397 297.064 267.328 297 265.92 297C265.067 297 263.573 297.043 261.44 297.128L259.968 297.192Z" fill="#23B9BE"/>
<path d="M289.904 297.192C289.52 297.192 289.221 297.064 289.008 296.808C288.837 296.509 288.752 296.168 288.752 295.784C288.795 295.144 288.923 294.76 289.136 294.632C289.349 294.504 289.755 294.44 290.352 294.44C291.589 294.44 292.507 294.227 293.104 293.8C293.701 293.331 294.064 292.776 294.192 292.136C294.363 291.453 294.469 290.579 294.512 289.512V264.104C294.469 263.037 294.363 262.184 294.192 261.544C294.064 260.861 293.701 260.307 293.104 259.88C292.507 259.411 291.589 259.176 290.352 259.176H289.968C289.541 259.176 289.243 259.112 289.072 258.984C288.901 258.813 288.795 258.429 288.752 257.832C288.752 257.448 288.837 257.128 289.008 256.872C289.221 256.573 289.52 256.424 289.904 256.424C292.677 256.552 295.195 256.616 297.456 256.616C300.016 256.616 302.683 256.552 305.456 256.424C305.84 256.424 306.117 256.573 306.288 256.872C306.501 257.128 306.608 257.448 306.608 257.832C306.565 258.472 306.437 258.856 306.224 258.984C306.011 259.112 305.605 259.176 305.008 259.176C303.771 259.176 302.853 259.411 302.256 259.88C301.659 260.307 301.275 260.861 301.104 261.544C300.976 262.184 300.891 263.037 300.848 264.104V275.688C301.531 275.56 302.299 275.197 303.152 274.6C304.005 274.003 305.051 273.171 306.288 272.104C308.677 269.885 311.685 266.621 315.312 262.312C316.08 261.459 316.464 260.776 316.464 260.264C316.464 259.624 315.888 259.283 314.736 259.24C314.437 259.197 314.224 259.091 314.096 258.92C314.011 258.707 313.925 258.365 313.84 257.896C313.84 257.512 313.947 257.171 314.16 256.872C314.373 256.573 314.651 256.424 314.992 256.424C316.485 256.552 318.832 256.616 322.032 256.616C323.056 256.616 324.549 256.573 326.512 256.488L327.856 256.424C328.24 256.424 328.539 256.573 328.752 256.872C328.965 257.128 329.072 257.469 329.072 257.896C329.029 258.493 328.901 258.877 328.688 259.048C328.475 259.176 328.176 259.24 327.792 259.24C326.085 259.155 324.464 259.432 322.928 260.072C321.435 260.712 319.856 261.864 318.192 263.528L307.824 274.344C309.317 276.179 310.853 277.928 312.432 279.592C314.011 281.256 315.909 283.197 318.128 285.416C319.237 286.525 320.56 287.891 322.096 289.512C322.565 289.981 322.885 290.323 323.056 290.536C324.421 291.901 325.488 292.861 326.256 293.416C327.067 293.971 328.048 294.312 329.2 294.44C329.285 294.44 329.477 294.461 329.776 294.504C330.075 294.504 330.309 294.611 330.48 294.824C330.693 295.037 330.8 295.357 330.8 295.784C330.8 296.168 330.693 296.509 330.48 296.808C330.309 297.064 330.032 297.192 329.648 297.192C329.136 297.149 328.517 297.128 327.792 297.128C326.256 297.043 325.061 297 324.208 297H320.112C314.48 290.728 309.445 285.032 305.008 279.912C303.643 278.333 302.256 277.48 300.848 277.352V289.512C300.891 290.579 300.976 291.453 301.104 292.136C301.275 292.776 301.659 293.331 302.256 293.8C302.853 294.227 303.771 294.44 305.008 294.44H305.392C305.819 294.44 306.117 294.525 306.288 294.696C306.459 294.824 306.565 295.187 306.608 295.784C306.608 296.168 306.501 296.509 306.288 296.808C306.117 297.064 305.84 297.192 305.456 297.192C302.725 297.064 300.08 297 297.52 297C295.216 297 292.677 297.064 289.904 297.192Z" fill="#23B9BE"/>
</svg>
